<svg fill="#0000" xmlns="http://www.w3.org/2000/svg"  viewBox="0 0 50 50" width="20px" height="20px">
<path fill="none" stroke="#fff" stroke-miterlimit="10" stroke-width="4" d="M41,45H9c-2.209,0-4-1.791-4-4V9c0-2.209,1.791-4,4-4h32c2.209,0,4,1.791,4,4v32C45,43.209,43.209,45,41,45z"/>
<path fill="none" stroke="#fff" stroke-linejoin="round" stroke-miterlimit="10" stroke-width="4" d="M45.001,35.37C41.481,37.656,37.164,39,32.5,39c-3.019,0-5.893-0.565-8.5-1.584c-3.567-1.441-5,2.404-10,1.404c3-1,3.466-5.35,2.655-6.141C13.144,29.208,11,24.581,11,19.5c0-5.759,2.753-10.934,7.128-14.502"/>
<path fill="none" stroke="#fff" stroke-linecap="round" stroke-linejoin="round" stroke-miterlimit="10" stroke-width="3" d="M18 17L23 17 18 25 23 25M33 16L33 25M30 20L30 25M38.5 20A2.5 2.5 0 1 0 38.5 25 2.5 2.5 0 1 0 38.5 20zM27.5 20A2.5 2.5 0 1 0 27.5 25 2.5 2.5 0 1 0 27.5 20z"/></svg>
