<svg xmlns="http://www.w3.org/2000/svg" width="72" height="72"><defs>
<linearGradient id="a" x1="0%" x2="99.58%" y1="0%" y2="99.58%">
<stop offset="0%" stop-color="#33D35E"/><stop offset="100%" stop-color="#2AB6D9"/>
</linearGradient></defs>
<g fill="none" fill-rule="evenodd"><circle cx="36" cy="36" r="36" fill="url(#a)"/>
<path fill="#FFF" fill-rule="nonzero" d="M52.94,16H18.45a5.27,5.27,0,0,0-5.28,5.28h0V55.72A5.3,5.3,0,0,0,18.45,61H52.94a5.3,5.3,0,0,0,5.28-5.28V21.23A5.28,5.28,0,0,0,52.94,16ZM18.45,19.47H52.94a1.76,1.76,0,0,1,1.76,1.76v5.28h-38V21.23A1.76,1.76,0,0,1,18.45,19.47Zm34.49,38H18.45a1.76,1.76,0,0,1-1.76-1.76V30h38V55.72a1.76,1.76,0,0,1-1.75,1.76ZM19.33,23a1.76,1.76,0,1,1,1.76,1.76A1.76,1.76,0,0,1,19.33,23Zm6.16,0a1.76,1.76,0,1,1,1.76,1.76A1.76,1.76,0,0,1,25.49,23Zm5.73,13.44a3.53,3.53,0,0,0-3.43-2.71H24.34v3.52h3.45l2,8.47a3.51,3.51,0,0,0,3.42,2.71h6.95a4.36,4.36,0,0,0,4.08-3.08l2.62-7.75H31.49ZM42,41.11l-1.1,3.13h0a.83.83,0,0,1-.72.62h-7l-.89-3.79ZM35.3,51.85a1.76,1.76,0,1,1-1.76-1.76h0a1.77,1.77,0,0,1,1.71,1.76Zm6.6,0a1.76,1.76,0,1,1-1.76-1.76h0a1.77,1.77,0,0,1,1.71,1.76Z"/></g></svg>