<svg xmlns="http://www.w3.org/2000/svg" width="72" height="72">
<defs>
<linearGradient id="a" x1="0%" x2="99.58%" y1="0%" y2="99.58%">
<stop offset="0%" stop-color="#33D35E"/><stop offset="100%" stop-color="#2AB6D9"/>
</linearGradient></defs><g fill="none" fill-rule="evenodd">
<circle cx="36" cy="36" r="36" fill="url(#a)"/>
<path fill="#FFF" fill-rule="nonzero" d="M 34.56 15.71 L 11.8 38.52 a 5.49 5.49 0 0 0 0 7.74 L 26.36 60.84 a 5.41 5.41 0 0 0 3.87 1.61 h 0 a 5.46 5.46 0 0 0 3.87 -1.6 L 56.93 38 V 15.71 Z M 53.28 36.53 L 31.52 58.26 a 1.78 1.78 0 0 1 -1.29 0.54 h 0 a 1.84 1.84 0 0 1 -1.29 -0.54 L 14.38 43.68 a 1.83 1.83 0 0 1 0 -2.58 l 21.7 -21.74 h 17.2 Z M 43.79 27 a 1.83 1.83 0 1 1 1.84 1.82 h 0 A 1.84 1.84 0 0 1 43.79 27 Z m -6 5.6 L 40 30.47 l 2.59 2.58 l -2.13 2.12 a 4.85 4.85 0 0 1 0.47 1.94 a 4.68 4.68 0 0 1 -1.38 3.54 l -0.32 0.32 L 36.6 38.39 l 0.32 -0.32 a 1.27 1.27 0 0 0 -0.12 -1.79 a 1.38 1.38 0 0 0 -1 -0.42 a 1.17 1.17 0 0 0 -0.83 0.34 c -0.63 0.63 -0.66 1.5 -0.11 3.22 h 0 a 14.91 14.91 0 0 1 0.78 3.36 a 4.81 4.81 0 0 1 -1.37 3.86 a 5.6 5.6 0 0 1 -6.4 1 l -2.13 2.13 l -2.58 -2.59 l 2.16 -2.16 a 5.6 5.6 0 0 1 1.09 -6.25 l 0.51 -0.51 l 2.59 2.58 L 29 41.4 a 1.93 1.93 0 0 0 0 2.68 a 1.84 1.84 0 0 0 1.33 0.53 a 2 2 0 0 0 1.36 -0.55 c 0.55 -0.56 0.32 -1.55 -0.31 -3.54 h 0 c -0.38 -1.22 -1.41 -4.47 1 -6.9 a 4.83 4.83 0 0 1 3.42 -1.41 a 4.92 4.92 0 0 1 2 0.42 Z"/></g></svg>